<svg width="29" height="35" viewBox="0 0 29 35" fill="none" xmlns="http://www.w3.org/2000/svg">
<g clip-path="url(#clip0_1214_27358)">
<path fill-rule="evenodd" clip-rule="evenodd" d="M14.5026 34.5834C6.95519 34.5834 0.835938 28.3548 0.835938 20.6725C0.835938 13.0499 5.19731 4.15287 12.0033 0.973665C12.7855 0.607109 13.6388 0.416984 14.5026 0.416748V34.5834Z" fill="white"/>
<path opacity="0.3" d="M16.9993 0.973665C16.2171 0.607109 15.3638 0.416984 14.5 0.416748V12.3751L22.0713 4.80375C20.597 3.18596 18.8938 1.85858 16.9976 0.973665" fill="white"/>
<path opacity="0.4" d="M14.5 12.375V21.7709L25.7989 10.472C24.8217 8.38779 23.5644 6.44542 22.0713 4.80371L14.5 12.375Z" fill="white"/>
<path opacity="0.6" d="M14.5 30.3125L27.8438 16.9687C27.4543 14.7218 26.7666 12.5369 25.7989 10.4719L14.5 21.7708V30.3125Z" fill="white"/>
<path opacity="0.7" d="M27.8438 16.9688L14.5 30.3125V34.5834C22.0474 34.5834 28.1667 28.3548 28.1667 20.6724C28.1667 19.4595 28.0573 18.2158 27.8438 16.9688Z" fill="white"/>
</g>
<defs>
<clipPath id="clip0_1214_27358">
<rect width="29" height="35" fill="white"/>
</clipPath>
</defs>
</svg>
