<svg width="17" height="24" viewBox="0 0 17 24" fill="none" xmlns="http://www.w3.org/2000/svg">
<g clip-path="url(#clip0_705_570)">
<path d="M4.61719 17.7786C5.31126 18.6632 5.94299 19.5949 6.50783 20.5672C6.99005 21.4815 7.19107 22.1015 7.54349 23.2032C7.75962 23.8119 7.95495 23.9936 8.37492 23.9936C8.83256 23.9936 9.04018 23.6845 9.2006 23.2066C9.53372 22.1661 9.79511 21.3721 10.2075 20.6218C11.0167 19.1733 12.0222 17.8862 13.0102 16.6491C13.2777 16.299 15.007 14.2592 15.7855 12.6498C15.7855 12.6498 16.7424 10.8818 16.7424 8.4127C16.7424 6.10307 15.7987 4.50122 15.7987 4.50122L13.0819 5.22881L11.4319 9.57438L11.0237 10.1736L10.9421 10.2821L10.8336 10.418L10.643 10.6351L10.3707 10.9073L8.90148 12.1043L5.22824 14.2252L4.61719 17.7786Z" fill="#34A853"/>
<path d="M0.824219 12.3527C1.72072 14.4004 3.4495 16.2005 4.61916 17.7802L10.8318 10.421C10.8318 10.421 9.95651 11.5657 8.36885 11.5657C6.60037 11.5657 5.17168 10.1535 5.17168 8.37276C5.17168 7.15163 5.90633 6.31274 5.90633 6.31274L1.68907 7.44277L0.824219 12.3527Z" fill="#FBBC04"/>
<path d="M10.9026 0.378418C12.966 1.04368 14.732 2.44033 15.8002 4.49981L10.8351 10.4166C10.8351 10.4166 11.5698 9.56257 11.5698 8.34903C11.5698 6.52686 10.0354 5.1656 8.37784 5.1656C6.81039 5.1656 5.91016 6.30838 5.91016 6.30838V2.58086L10.9026 0.378418Z" fill="#4285F4"/>
<path d="M1.96094 2.99281C3.19331 1.51834 5.36181 0 8.35141 0C9.80187 0 10.8946 0.380796 10.8946 0.380796L5.90263 6.31167H2.36573L1.96094 2.99281Z" fill="#1A73E8"/>
<path d="M0.824763 12.3527C0.824763 12.3527 0 10.7376 0 8.39776C0 6.18629 0.859684 4.25321 1.96283 2.99292L5.90734 6.31231L0.824763 12.3527Z" fill="#EA4335"/>
</g>
<defs>
<clipPath id="clip0_705_570">
<rect width="16.7411" height="24" fill="white"/>
</clipPath>
</defs>
</svg>
